PathFileType	4	(X/Y/Z)	C:\Users\Biomechanik\SynologyDrive\AlexP\Athlete_03\Athlete_3_25_03_31\Squat_bar_04\marker_experimental.trc
DataRate	CameraRate	NumFrames	NumMarkers	Units	OrigDataRate	OrigDataStartFrame	OrigNumFrames
200.000000	200.000000	4	55	mm	200.000000	0	461
Frame#	Time	BL			BR			GLAB			RFHD			LFHD			C7			T6			SPINMOL			SPINM2			SPINM3			T12			BELTOL			BELT2			BELT3			SACROL			SACR2			SACR3			LTHOL			LTH2			LTH3			LSHAOL			LSHA2			LSHA3			LHEE			LTOE			LM5			RTHOL			RTH2			RTH3			RSHAOL			RSHA2			RSHA3			RHEE			RTOE			RM5			STRN			XIPH			LACR			LUAOL			LUA2			LUA3			LLAOL			LLA2			LLA3			LWRR			LWRU			RACR			RUAOL			RUA2			RUA3			RLAOL			RLA2			RLA3			RWRR			RWRU			
		X1	Y1	Z1	X2	Y2	Z2	X3	Y3	Z3	X4	Y4	Z4	X5	Y5	Z5	X6	Y6	Z6	X7	Y7	Z7	X8	Y8	Z8	X9	Y9	Z9	X10	Y10	Z10	X11	Y11	Z11	X12	Y12	Z12	X13	Y13	Z13	X14	Y14	Z14	X15	Y15	Z15	X16	Y16	Z16	X17	Y17	Z17	X18	Y18	Z18	X19	Y19	Z19	X20	Y20	Z20	X21	Y21	Z21	X22	Y22	Z22	X23	Y23	Z23	X24	Y24	Z24	X25	Y25	Z25	X26	Y26	Z26	X27	Y27	Z27	X28	Y28	Z28	X29	Y29	Z29	X30	Y30	Z30	X31	Y31	Z31	X32	Y32	Z32	X33	Y33	Z33	X34	Y34	Z34	X35	Y35	Z35	X36	Y36	Z36	X37	Y37	Z37	X38	Y38	Z38	X39	Y39	Z39	X40	Y40	Z40	X41	Y41	Z41	X42	Y42	Z42	X43	Y43	Z43	X44	Y44	Z44	X45	Y45	Z45	X46	Y46	Z46	X47	Y47	Z47	X48	Y48	Z48	X49	Y49	Z49	X50	Y50	Z50	X51	Y51	Z51	X52	Y52	Z52	X53	Y53	Z53	X54	Y54	Z54	X55	Y55	Z55	

1	0	154.7910003662109	1348.750244140625	-2234.50439453125	177.3022613525391	1369.507690429688	-213.2833862304687	440.248779296875	1567.971557617188	-1182.984252929688	388.2393798828125	1589.739501953125	-1119.599731445312	396.5523681640625	1592.688110351562	-1254.913208007812	211.7813873291016	1430.210083007812	-1194.533081054688	118.8326568603516	1280.199829101562	-1204.944580078125	103.6129455566406	1245.862182617188	-1224.506469726562	96.14436340332031	1237.745727539062	-1175.828735351562	90.97686004638672	1182.371459960938	-1211.1416015625	85.42054748535156	1111.554931640625	-1212.434692382812	63.21193313598633	1077.3642578125	-1231.188842773438	62.80144119262695	1073.213745117188	-1181.230834960938	50.44052124023438	1015.319519042969	-1212.289184570312	43.6285285949707	943.6550292968751	-1236.5078125	42.46225357055664	939.6339111328126	-1185.031616210938	32.2870979309082	881.4871215820314	-1214.984375	123.7837677001953	678.9793090820314	-1423.877075195312	91.3011474609375	615.3010864257814	-1389.947631835938	129.9908447265625	617.5443115234376	-1421.45703125	121.066291809082	330.5206604003907	-1497.575561523438	86.21321868896484	260.0187988281251	-1486.003784179688	130.339111328125	270.2412414550782	-1508.8388671875	111.0708999633789	68.68837738037118	-1465.685424804688	314.5867004394531	50.94900512695322	-1541.051513671875	237.8760528564453	26.07804679870615	-1620.186279296875	94.96512603759766	687.2651367187501	-1014.670715332031	140.0547637939453	639.7435913085939	-968.9246826171875	105.978141784668	627.6329345703126	-1003.3359375	76.39138031005859	345.6266784667969	-934.6439208984375	108.4093551635742	283.5274353027344	-898.9541015625	72.52333831787109	283.3444519042969	-933.04541015625	88.92822265625	62.22247314453131	-965.6924438476562	279.1972351074219	48.51185989379888	-869.0173950195312	190.4004211425781	37.33990097045903	-798.1806030273438	356.8882141113281	1297.13671875	-1202.211547851562	348.218017578125	1151.3671875	-1201.19287109375	255.6764831542969	1391.292602539062	-1366.824584960938	152.1822052001953	1266.474853515625	-1454.571533203125	107.2139739990234	1220.016967773438	-1441.862548828125	136.9908447265625	1208.474731445312	-1481.508544921875	113.0879287719727	1138.325439453125	-1549.473754882812	182.7590026855469	1137.8232421875	-1587.152465820312	152.2571868896484	1176.620483398438	-1577.241455078125	202.4315032958984	1258.953735351562	-1619.838134765625	214.8827209472656	1289.663452148438	-1547.847045898438	270.7111206054688	1385.529907226562	-1033.90771484375	169.9800567626953	1260.44189453125	-953.8878173828124	149.0968933105469	1203.558837890625	-927.4386596679686	127.1574172973633	1214.6083984375	-973.0924682617186	149.1441345214844	1132.541137695312	-844.7440795898436	143.6244506835938	1211.186767578125	-831.1819458007811	182.861328125	1179.60302734375	-821.2880859374999	208.6407928466797	1267.572021484375	-798.5142822265624	230.461181640625	1303.13427734375	-867.4818115234374	
2	0.005	154.7747955322266	1348.736938476563	-2234.517578125	177.3603363037109	1369.527465820312	-213.301544189453	440.2518005371094	1567.970947265625	-1183.00146484375	388.240966796875	1589.733276367188	-1119.626953125	396.5499877929688	1592.682983398438	-1254.93359375	211.7889709472656	1430.207885742188	-1194.542114257812	118.8366546630859	1280.201293945312	-1204.951293945312	103.6055450439453	1245.867065429688	-1224.512817382812	96.15870666503906	1237.752685546875	-1175.8779296875	90.96304321289062	1182.379028320312	-1211.144775390625	85.40219879150391	1111.5712890625	-1212.43212890625	63.18999862670898	1077.386962890625	-1231.186279296875	62.79153442382812	1073.232055664062	-1181.225708007812	50.42919158935547	1015.338684082031	-1212.280517578125	43.5831184387207	943.6402587890626	-1236.506103515625	42.40992736816406	939.6253662109376	-1185.019287109375	32.25360870361328	881.4698486328126	-1214.976196289062	123.796257019043	678.9930419921876	-1423.85791015625	91.29044342041016	615.2808227539064	-1389.941284179688	129.9788513183594	617.5307006835939	-1421.468872070312	121.0859832763672	330.5100402832032	-1497.525634765625	86.22301483154297	260.0226440429689	-1486.01318359375	130.3470153808594	270.2420043945314	-1508.849243164062	111.0676345825195	68.68313598632821	-1465.6884765625	314.5834350585938	50.9538345336915	-1541.053344726562	237.8734283447266	26.07907295227061	-1620.181518554688	94.99130249023438	687.2619628906251	-1014.641845703125	140.0817260742188	639.7468261718751	-968.9016723632812	106.0061569213867	627.6329345703126	-1003.312866210938	76.42652130126953	345.6333007812501	-934.6163330078125	108.4439392089844	283.5226745605469	-898.9326782226562	72.55502319335938	283.3509216308594	-933.0194702148438	88.93019866943359	62.21651077270513	-965.6932373046875	279.1983642578125	48.50865936279302	-869.0156860351562	190.4048156738281	37.34012603759771	-798.18017578125	356.906494140625	1297.133544921875	-1202.223022460938	348.2364807128906	1151.369018554688	-1201.205078125	255.6932220458984	1391.298095703125	-1366.837646484375	152.2783050537109	1266.469116210938	-1454.551879882812	107.2295150756836	1220.023803710938	-1441.878173828125	136.9866485595703	1208.460205078125	-1481.533203125	113.0991134643555	1138.32080078125	-1549.489379882812	182.7750396728516	1137.822998046875	-1587.1640625	152.2694244384766	1176.618896484375	-1577.253173828125	202.4500427246094	1258.949340820312	-1619.849243164062	214.8953552246094	1289.661499023438	-1547.863403320312	270.7328186035156	1385.534057617188	-1033.924072265625	169.9998931884766	1260.457397460938	-953.8844604492186	149.1167297363281	1203.573120117188	-927.4356689453124	127.1746368408203	1214.621337890625	-973.0949096679686	149.1590118408203	1132.557495117188	-844.7484130859374	143.6338958740234	1211.248901367188	-831.1942749023436	182.8838500976562	1179.615112304688	-821.2929687499999	208.6916351318359	1267.588012695312	-798.5302124023436	230.4876098632812	1303.13671875	-867.4915161132811	
3	0.01	154.7568664550781	1348.719848632813	-2234.5322265625	177.4268035888672	1369.55029296875	-213.3223419189452	440.2567749023438	1567.969360351562	-1183.021484375	388.244140625	1589.725463867188	-1119.658813476562	396.5492858886719	1592.6767578125	-1254.95654296875	211.7990875244141	1430.204711914062	-1194.553100585938	118.8419647216797	1280.203247070312	-1204.959350585938	103.5974807739258	1245.873168945312	-1224.520263671875	96.17408752441406	1237.761840820312	-1175.929321289062	90.94789886474609	1182.38818359375	-1211.148559570312	85.38185882568359	1111.590087890625	-1212.429077148438	63.16481018066406	1077.413818359375	-1231.183349609375	62.77994155883789	1073.253540039062	-1181.218627929688	50.41571426391602	1015.361511230469	-1212.27099609375	43.52926254272461	943.6224975585939	-1236.504638671875	42.34869384765625	939.6146850585939	-1185.005126953125	32.21417236328125	881.4491577148439	-1214.967041015625	123.8019561767578	679.0048828125001	-1423.83935546875	91.27768707275391	615.2569580078126	-1389.935302734375	129.9643402099609	617.5142211914064	-1421.482421875	121.1050491333008	330.4996032714845	-1497.481689453125	86.23413848876953	260.0269775390626	-1486.023681640625	130.3558349609375	270.2427368164064	-1508.861083984375	111.0638656616211	68.67714691162118	-1465.692138671875	314.5795288085938	50.95945358276376	-1541.055541992188	237.8700561523438	26.08066749572764	-1620.17578125	95.02113342285156	687.2592773437501	-1014.605590820312	140.11474609375	639.7503662109376	-968.87451171875	106.0398559570312	627.6329956054689	-1003.28564453125	76.46927642822266	345.6411132812501	-934.5838012695312	108.4860153198242	283.5169677734376	-898.9071655273438	72.59320068359375	283.3583679199219	-932.9891357421875	88.93213653564453	62.21017074584967	-965.6944580078125	279.1996459960938	48.50500869750982	-869.0135498046875	190.4095153808594	37.34030914306646	-798.1799926757812	356.9285583496094	1297.129272460938	-1202.236450195312	348.2579956054688	1151.371215820312	-1201.219116210938	255.7129058837891	1391.304321289062	-1366.85302734375	152.3816680908203	1266.462524414062	-1454.534423828125	107.2492218017578	1220.0302734375	-1441.896606445312	136.9883728027344	1208.44482421875	-1481.56103515625	113.1147308349609	1138.314575195312	-1549.5078125	182.7963409423828	1137.821899414062	-1587.177856445312	152.2848968505859	1176.616088867188	-1577.267578125	202.4736175537109	1258.943481445312	-1619.861694335938	214.9108581542969	1289.658813476562	-1547.882446289062	270.7590942382812	1385.537963867188	-1033.94384765625	170.0212249755859	1260.475952148438	-953.8806152343749	149.1398315429688	1203.589233398438	-927.4333496093749	127.1948165893555	1214.6357421875	-973.0982055664061	149.1768951416016	1132.575805664062	-844.7532958984374	143.6471099853516	1211.31640625	-831.2075805664061	182.9104766845703	1179.628784179688	-821.2990112304686	208.7501983642578	1267.606079101562	-798.5488281249999	230.5178680419922	1303.13818359375	-867.5023803710936	
4	0.015	154.7375946044922	1348.698608398438	-2234.548095703125	177.5010528564453	1369.575927734375	-213.3455963134765	440.2641906738281	1567.966430664062	-1183.043823242188	388.2493286132812	1589.715942382812	-1119.69482421875	396.5509338378906	1592.669311523438	-1254.98193359375	211.8121490478516	1430.200805664062	-1194.566040039062	118.848762512207	1280.205932617188	-1204.968627929688	103.5889587402344	1245.880859375	-1224.529052734375	96.18999481201172	1237.773559570312	-1175.98095703125	90.93177795410156	1182.39892578125	-1211.153076171875	85.35994720458984	1111.611450195312	-1212.425415039062	63.13657760620117	1077.44482421875	-1231.179809570312	62.76665115356445	1073.278198242188	-1181.209594726562	50.4000358581543	1015.38818359375	-1212.2607421875	43.46684646606445	943.6016845703126	-1236.503540039062	42.27877044677734	939.6016235351564	-1184.989501953125	32.16885757446289	881.4249877929689	-1214.957153320312	123.7989959716797	679.0138549804689	-1423.822387695312	91.26288604736328	615.2294311523439	-1389.930297851562	129.9471282958984	617.4950561523439	-1421.497436523438	121.1226196289062	330.4898376464845	-1497.446655273438	86.24644470214844	260.0317687988282	-1486.034790039062	130.3653717041016	270.2434387207032	-1508.874389648438	111.0596466064453	68.6704864501954	-1465.696166992188	314.5749816894531	50.96583938598642	-1541.05810546875	237.8658905029297	26.08292961120615	-1620.1689453125	95.05439758300781	687.2572631835939	-1014.561218261719	140.1542053222656	639.7541503906251	-968.8430786132812	106.0794219970703	627.6331176757814	-1003.254272460938	76.52000427246094	345.6501770019532	-934.5463256835938	108.5359649658203	283.5103759765626	-898.8777465820312	72.63813018798828	283.3667602539063	-932.9545288085938	88.93396759033203	62.20364379882818	-965.6961669921875	279.2010192871094	48.50095748901372	-869.010986328125	190.4144287109375	37.34043884277349	-798.1799926757812	356.9544677734375	1297.123657226562	-1202.251708984375	348.2825012207031	1151.373657226562	-1201.234741210938	255.7355194091797	1391.310791015625	-1366.870483398438	152.4886016845703	1266.455444335938	-1454.521240234375	107.2734832763672	1220.035888671875	-1441.917724609375	136.9980926513672	1208.42919921875	-1481.591552734375	113.1355209350586	1138.30615234375	-1549.528930664062	182.823486328125	1137.819580078125	-1587.19384765625	152.3039398193359	1176.612060546875	-1577.28466796875	202.5027160644531	1258.935913085938	-1619.87548828125	214.9294586181641	1289.655151367188	-1547.904052734375	270.7901611328125	1385.541381835938	-1033.966918945312	170.0434875488281	1260.497680664062	-953.8762817382811	149.1661071777344	1203.606811523438	-927.4319458007811	127.2179641723633	1214.6513671875	-973.1024169921874	149.1979370117188	1132.596069335938	-844.7586669921874	143.6644744873047	1211.388061523438	-831.2215576171874	182.9412689208984	1179.643920898438	-821.3063964843749	208.8158569335938	1267.6259765625	-798.5700073242186	230.5517272949219	1303.138305664062	-867.5142211914061	
